<svg width="1920" height="108" viewBox="0 0 1920 108" fill="none" xmlns="http://www.w3.org/2000/svg" xmlns:xlink="http://www.w3.org/1999/xlink">
<g clip-path="url(#clip0_8_7)">
<path d="M1920 46H0V55H1920V46Z" fill="#F17A20"/>
<g filter="url(#filter0_d_8_7)">
<path d="M960 100C987.614 100 1010 77.6142 1010 50C1010 22.3858 987.614 0 960 0C932.386 0 910 22.3858 910 50C910 77.6142 932.386 100 960 100Z" fill="white"/>
</g>
<path d="M989.49 77.7771C989.424 77.7115 989.396 77.6336 989.396 77.5434C989.396 77.4532 989.429 77.3753 989.49 77.3097C989.552 77.2441 989.634 77.2155 989.724 77.2155C989.81 77.2155 989.888 77.2482 989.949 77.3097C990.011 77.3712 990.043 77.4532 990.043 77.5434C990.043 77.6336 990.011 77.7115 989.949 77.7771C989.888 77.8427 989.814 77.8714 989.724 77.8714C989.629 77.8714 989.552 77.8386 989.49 77.7771Z" fill="#010101"/>
<rect x="918" y="" width="" height="" fill="url(#pattern0)"/>
</g>
<defs>
<filter id="filter0_d_8_7" x="906" y="" width="108" height="" filterUnits="userSpaceOnUse" color-interpolation-filters="sRGB">
<feFlood flood-opacity="0" result="BackgroundImageFix"/>
<!-- <feColorMatrix in="SourceAlpha" type="matrix" values="0 0 0 0 0 0 0 0 0 0 0 0 0 0 0 0 0 0 127 0" result="hardAlpha"/> -->
<!-- <feOffset dy="4"/> -->
<!-- <feGaussianBlur stdDeviation="2"/> -->
<!-- <feComposite in2="hardAlpha" operator="out"/> -->
<!-- <feColorMatrix type="matrix" values="0 0 0 0 0 0 0 0 0 0 0 0 0 0 0 0 0 0 0.2 0"/> -->
<!-- <feBlend mode="normal" in2="BackgroundImageFix" result="effect1_dropShadow_8_7"/> -->
<!-- <feBlend mode="normal" in="SourceGraphic" in2="effect1_dropShadow_8_7" result="shape"/> -->
</filter>

</defs>
</svg>
